<?xml version="1.0" encoding="UTF-8"?>
<svg id="Layer_1" data-name="Layer 1" xmlns="http://www.w3.org/2000/svg" viewBox="0 0 1920 379.03">
  <defs>
    <style>
      .cls-1, .cls-2 {
        stroke-width: 0px;
      }

      .cls-2 {
        fill: #fff;
      }
    </style>
  </defs>
  <rect class="cls-2" x="-26.57" y="-44.12" width="1983.91" height="467.88"/>
  <g>
    <path class="cls-1" d="m1058.5,187.4c0-6.44,0-12.88,0-19.32,0-2.48.46-2.93,2.96-2.93,5.96,0,11.92-.04,17.88.03,1.67.02,3.35.25,4.99.58,6.38,1.3,8.81,5.84,8.17,11.95-.27,2.55-1.51,4.58-3.45,6.24-1.17,1.01-1.12,1.77.19,2.55,4.47,2.67,5.87,6.77,5.44,11.67-.46,5.14-3.37,8.48-8.13,10.12-2.05.71-4.27,1.18-6.43,1.24-6.31.16-12.64.07-18.95.06-2.1,0-2.65-.54-2.65-2.63-.01-6.52,0-13.04,0-19.56Zm16.23,14.44s0,.09,0,.13c1.87-.11,3.75-.11,5.6-.37,1.61-.23,3.06-.95,3.85-2.54,2.13-4.27-.3-8.75-5.04-9.07-2.86-.19-5.75-.09-8.62-.03-1.51.03-2.06.57-2.1,2.04-.07,2.59-.07,5.19,0,7.78.04,1.47.59,1.97,2.11,2.04,1.39.06,2.79.01,4.19.01Zm-.45-18.74s0,.02,0,.03c1.2,0,2.42.15,3.59-.04,1.23-.2,2.57-.48,3.57-1.16,1.85-1.24,2.21-3.23,1.77-5.34-.42-2.01-1.8-3.24-3.72-3.4-3.13-.25-6.29-.2-9.44-.21-1.05,0-1.58.76-1.6,1.75-.04,2.16-.05,4.31-.01,6.47.02,1.19.69,1.85,1.88,1.89,1.32.04,2.64,0,3.96,0Z"/>
    <path class="cls-1" d="m710.02,187.25c0-6.4,0-12.8,0-19.2,0-2.42.48-2.9,2.87-2.9,5.68,0,11.37-.18,17.04.06,7.6.32,13.48,3.69,16.48,10.93,1.03,2.47,1.56,5.22,1.86,7.89.6,5.33-.06,10.53-2.43,15.43-3.13,6.47-8.4,9.77-15.43,10.04-6.03.24-12.08.08-18.12.06-1.7,0-2.26-.65-2.26-2.52-.02-6.6,0-13.2,0-19.8h0Zm9.89.11h0c0,3.84-.02,7.68.01,11.52.02,1.92.55,2.45,2.43,2.49,2.04.04,4.08.07,6.12-.01,4.53-.19,7.79-2.66,9.16-6.99,1.5-4.73,1.3-9.48-.24-14.15-1.29-3.91-4.12-6.13-8.19-6.61-2.13-.25-4.31-.22-6.46-.24-2.32-.01-2.81.5-2.82,2.83-.02,3.72,0,7.44,0,11.16Z"/>
    <path class="cls-1" d="m859.52,165.32c3.4,0,6.84-.34,10.18.07,8.74,1.07,14.3,6.34,16.06,14.96,1.31,6.45,1.02,12.81-1.82,18.89-3.19,6.84-8.74,10.12-16.12,10.31-5.72.15-11.44.05-17.16.03-2.09,0-2.63-.55-2.64-2.65-.01-9.28,0-18.56,0-27.84,0-3.68,0-7.36,0-11.04,0-2.43.47-2.9,2.86-2.91,2.88-.01,5.76,0,8.64,0,0,.06,0,.11,0,.17Zm-1.61,21.97c0,3.72,0,7.44,0,11.16,0,.08,0,.16,0,.24.05,2.17.54,2.67,2.73,2.7,1.84.02,3.68.04,5.52,0,4.71-.11,8.09-2.58,9.49-7.05,1.49-4.77,1.29-9.56-.32-14.26-1.3-3.8-4.1-5.96-8.06-6.44-2.17-.26-4.39-.23-6.58-.25-2.26-.01-2.76.51-2.77,2.76-.02,3.72,0,7.44,0,11.16Z"/>
    <path class="cls-1" d="m666.82,187.29c0-6.4,0-12.79,0-19.19,0-2.49.46-2.95,2.94-2.95,7.04,0,14.07-.07,21.11.03,5.05.08,8.95,2.28,11.13,6.97,1.97,4.25,1.81,11.06-3.55,14.87-1.69,1.2-1.65,1.67-.05,2.95,2.67,2.13,3.33,5.15,3.7,8.3.36,3.09.7,6.19,1.08,9.28.16,1.3-.25,1.95-1.56,1.99-1.8.07-3.6.06-5.39,0-1.32-.04-1.98-.7-2.21-2.24-.38-2.57-.66-5.15-.99-7.73-.01-.12-.02-.24-.04-.36-.61-5.2-2.51-6.9-7.73-6.91-1.92,0-3.84-.02-5.76,0-2.26.03-2.77.52-2.78,2.76-.02,3.88,0,7.76-.02,11.63,0,2.4-.48,2.86-2.9,2.88-1.36,0-2.72,0-4.08,0-2.42-.02-2.9-.48-2.9-2.87,0-6.48,0-12.95,0-19.43Zm16.44-2.02h0c1.4,0,2.8.06,4.19,0,3.54-.17,5.64-2.36,5.74-5.93.11-3.83-1.77-6.17-5.44-6.39-2.98-.18-5.99-.09-8.98-.03-1.44.03-1.98.57-2.01,2-.07,2.75-.07,5.51,0,8.27.03,1.49.58,2,2.08,2.07,1.47.07,2.96.01,4.43.01Z"/>
    <path class="cls-1" d="m754.18,187.41c0-6.44,0-12.87,0-19.31,0-2.49.45-2.94,2.94-2.95,7.04,0,14.07-.07,21.11.04,5.05.08,8.95,2.28,11.12,6.98,1.97,4.25,1.8,11.05-3.56,14.86-1.68,1.2-1.65,1.66-.04,2.95,2.67,2.13,3.33,5.15,3.7,8.3.36,3.09.7,6.19,1.08,9.28.16,1.3-.26,1.94-1.57,1.99-1.8.06-3.6.06-5.39,0-1.32-.05-1.98-.7-2.2-2.24-.38-2.57-.66-5.15-.98-7.73-.02-.2-.04-.4-.06-.6-.66-5-2.53-6.65-7.59-6.67-2.04,0-4.08-.02-6.12.01-1.97.04-2.51.56-2.53,2.52-.04,3.96,0,7.92-.02,11.87,0,2.39-.48,2.85-2.9,2.87-1.44,0-2.88.01-4.32,0-2.1-.02-2.65-.55-2.65-2.63-.01-6.52,0-13.03,0-19.55Zm16.45-2.13s0,0,0,0c1.4,0,2.8.06,4.19-.01,3.53-.17,5.63-2.37,5.73-5.94.11-3.82-1.78-6.16-5.44-6.38-2.99-.18-5.99-.09-8.98-.03-1.43.03-1.97.57-2.01,2-.07,2.75-.07,5.51,0,8.27.03,1.49.58,2,2.08,2.07,1.47.07,2.96.01,4.43.01Z"/>
    <path class="cls-1" d="m1001.16,194.43c0,4.72.09,9.44-.02,14.15-.17,6.82-4.26,11.5-10.95,12.76-.82.15-1.66.28-2.49.37-3.52.36-6.95.05-10.2-1.46-2.67-1.24-4.73-3.12-5.81-5.92-.74-1.92-.12-2.81,1.94-2.85,1.32-.02,2.64.02,3.96,0,1.14-.02,2.04.4,2.64,1.35,1.84,2.9,5.4,3.33,7.86,2.67,2.17-.59,3.77-1.88,4.31-4.08.37-1.49.5-3.07.48-4.6-.02-1.38-.79-1.65-1.9-.78-2.52,1.97-5.39,2.75-8.53,2.56-4.88-.3-8.64-2.49-10.57-7.05-2.98-7.01-2.8-13.87,1.78-20.26,3.57-4.98,11.94-6.17,16.8-2.43.25.2.49.41.75.59.74.51,1.38.45,1.71-.46.44-1.21,1.32-1.62,2.52-1.59,1.12.02,2.24-.02,3.36.01,1.79.04,2.38.61,2.39,2.4.02,4.88,0,9.75,0,14.63,0,0-.01,0-.02,0Zm-22.58-.89c.3,1.01.72,3.05,1.49,4.94.75,1.85,2.34,2.88,4.33,3.22,3.48.6,6.65-1.25,7.87-4.79,1.2-3.49.95-6.96-.74-10.23-1.84-3.55-7.38-4.36-10.25-1.55-2.06,2.02-2.56,4.62-2.71,8.41Z"/>
    <path class="cls-1" d="m797.38,187.29c0-6.4,0-12.79,0-19.19,0-2.49.46-2.95,2.94-2.95,8.32,0,16.63,0,24.95,0,2.39,0,2.85.48,2.87,2.9,0,.92.01,1.84,0,2.76-.04,1.95-.58,2.52-2.51,2.53-4.4.02-8.8,0-13.19.02-1.08,0-2.16,0-3.24.05-1.19.05-1.86.71-1.88,1.9-.04,2.12-.08,4.24.01,6.35.06,1.48.68,1.94,2.45,1.95,3.96.03,7.92.02,11.87.02,3.38,0,3.61.23,3.61,3.6,0,.6,0,1.2-.01,1.8-.06,1.7-.63,2.29-2.36,2.31-3.92.03-7.84.01-11.75.02-.52,0-1.04,0-1.56.02-1.7.1-2.23.58-2.28,2.27-.06,1.84-.03,3.68-.03,5.52,0,2.68.01,5.36-.02,8.04-.02,1.78-.61,2.35-2.41,2.38-1.56.03-3.12.02-4.68,0-2.26-.02-2.77-.51-2.78-2.75-.01-6.52,0-13.03,0-19.55Z"/>
    <path class="cls-1" d="m1217.71,194.68c.21,4.27.41,8.53.64,12.8.08,1.5-.37,2.04-1.91,2.1-1.08.04-2.16-.02-3.24.03-1.39.07-2.6-.17-3.49-1.39-.55-.76-1.27-.48-1.93-.09-2.03,1.18-4.18,2.01-6.52,2.28-3.81.45-7.34-.12-10.18-3-4.56-4.61-2.85-13.19,3.25-15.3,2.99-1.03,6.23-1.33,9.36-1.96,1.13-.23,2.3-.37,3.38-.74,1.28-.43,1.99-1.4,2.01-2.82.02-1.52-.59-2.64-1.97-3.28-3.22-1.5-6.75-.39-8.64,2.57-.38.6-1.16,1.2-1.84,1.31-1.61.26-3.26.3-4.89.3-1.63,0-2.23-.83-1.83-2.44.66-2.68,2.13-4.79,4.6-6.14,4.22-2.32,8.79-2.52,13.42-2.06,1.68.17,3.39.62,4.97,1.24,3.33,1.31,4.93,3.94,5,7.48.06,3.04.01,6.08.01,9.11-.06,0-.12,0-.18,0Zm-8.51,2.69c0-.28.02-.56,0-.84-.11-1.6-.65-2.01-2.25-1.71-.74.14-1.5.24-2.23.43-1.69.43-3.44.74-5.05,1.39-1.76.71-2.49,2.32-2.28,4.19.2,1.8,1.15,2.85,3.07,3.37,4.94,1.36,8.71-1.58,8.75-6.83Z"/>
    <path class="cls-1" d="m1174.4,195.68c-2.88,0-5.76-.02-8.64,0-2.07.02-2.67.86-2.11,2.82,1.54,5.32,8.35,7.27,12.17,3.23,2.24-2.37,4.73-2.08,7.37-1.94.87.05,1.26.7,1.08,1.54-.12.58-.35,1.15-.63,1.67-3.08,5.67-8.72,8.36-15.48,7.41-7.89-1.11-13.1-6.88-13.61-15.24-.38-6.23,1.39-11.65,6.54-15.56,5.92-4.49,15.39-3.86,20.12,1.37,3.2,3.54,4.61,7.8,4.49,12.56-.04,1.47-.67,2.07-2.2,2.09-3.04.04-6.08.01-9.12.01v.02Zm-4.4-5.6v.02c1.44,0,2.87,0,4.31,0,.08,0,.16,0,.24,0,1.86-.09,2.42-.94,1.76-2.67-1.01-2.66-3.11-4.01-6.18-3.97-2.97.04-5.46,1.71-6.34,4.26-.49,1.43.02,2.28,1.55,2.35,1.55.08,3.11.02,4.66.02Z"/>
    <path class="cls-1" d="m909.76,195.68c-2.92,0-5.84-.02-8.76,0-2.05.02-2.64.88-2.05,2.86,1.55,5.26,8.31,7.22,12.1,3.25,2.23-2.34,4.7-2.18,7.35-2,1.12.07,1.5.92,1.01,2.17-.97,2.49-2.64,4.49-4.79,6.02-8.96,6.36-21.76,1.36-24.26-9.52-1.37-6-.43-11.54,3.5-16.51,5.6-7.07,20.56-8.17,25.54,3.48,1.07,2.49,1.66,5.09,1.61,7.81-.04,1.79-.6,2.4-2.38,2.42-2.96.03-5.92,0-8.87,0v.02Zm-4.46-5.6s0,.01,0,.02c1.44,0,2.87,0,4.31,0,.08,0,.16,0,.24,0,1.85-.1,2.4-.95,1.73-2.69-1.02-2.66-3.12-4-6.19-3.95-2.96.05-5.46,1.74-6.33,4.28-.48,1.42.04,2.26,1.58,2.33,1.55.07,3.11.02,4.67.02Z"/>
    <path class="cls-1" d="m1007.14,193.5c0-4.48-.01-8.96,0-13.43,0-2.11.54-2.64,2.62-2.67,1.2-.01,2.4,0,3.6.02.93.02,1.56.47,1.92,1.36.64,1.61.96,1.66,2.4.56,4.32-3.28,8.98-3.38,13.82-1.39,1.96.81,3.34,2.3,3.9,4.3.59,2.1,1.17,4.28,1.23,6.43.17,6.11.07,12.23.06,18.35,0,2-.57,2.53-2.6,2.56-1.2.02-2.4.02-3.6,0-1.87-.04-2.45-.59-2.46-2.45-.02-5.04,0-10.07-.03-15.11,0-1.19-.07-2.4-.26-3.58-.44-2.68-2.12-4.34-4.6-4.68-2.68-.37-5.29.83-6.22,3.25-.63,1.64-1,3.47-1.05,5.23-.14,4.83-.04,9.67-.06,14.51,0,2.34-.49,2.82-2.81,2.84-1.16.01-2.32.02-3.48,0-1.78-.04-2.37-.61-2.38-2.41-.02-4.56,0-9.12,0-13.67h0Z"/>
    <path class="cls-1" d="m1129.1,193.51c0,4.48.01,8.95,0,13.43,0,2.1-.55,2.62-2.64,2.64-1.16.01-2.32,0-3.48-.01-1.04-.01-1.7-.5-2.06-1.5-.51-1.4-1-1.52-2.17-.55-3.78,3.12-8,3.74-12.61,2.3-2.59-.81-4.46-2.46-5.26-5.01-.65-2.07-1.21-4.27-1.27-6.42-.17-6.11-.07-12.23-.06-18.35,0-2.1.54-2.62,2.64-2.65,1.16-.02,2.32-.02,3.48,0,2,.03,2.55.57,2.55,2.61.02,5.2-.02,10.39.03,15.59.01,1.31.15,2.64.46,3.91.57,2.36,2.22,3.71,4.55,3.98,2.5.29,4.98-.74,5.84-2.87.71-1.74,1.19-3.67,1.26-5.54.17-4.95.05-9.91.07-14.87,0-2.32.5-2.79,2.84-2.81,1.04,0,2.08-.01,3.12,0,2.19.03,2.71.53,2.72,2.69.02,4.48,0,8.95,0,13.43Z"/>
    <path class="cls-1" d="m1253.18,193.61c0,4.44.01,8.87,0,13.31,0,2.11-.54,2.64-2.62,2.66-1.16.01-2.32,0-3.48-.01-1.04,0-1.71-.48-2.07-1.48-.51-1.41-1.01-1.54-2.16-.58-3.78,3.13-7.99,3.75-12.61,2.31-2.59-.81-4.46-2.45-5.27-4.99-.65-2.03-1.21-4.19-1.27-6.3-.17-6.19-.07-12.39-.06-18.59,0-1.96.57-2.51,2.5-2.54,1.28-.02,2.56-.03,3.84,0,1.71.04,2.31.62,2.32,2.34.03,5.12-.01,10.23.04,15.35.01,1.43.12,2.89.43,4.28.56,2.49,2.25,3.88,4.68,4.12,2.56.25,4.98-.84,5.84-3.07.67-1.71,1.1-3.61,1.16-5.45.16-4.91.05-9.83.06-14.75,0-2.34.49-2.81,2.82-2.83,1.16,0,2.32-.02,3.48,0,1.78.04,2.36.62,2.37,2.42.02,4.6,0,9.19,0,13.79h0Z"/>
    <path class="cls-1" d="m937.96,176.58c2.76.04,5.43.48,7.96,1.6,2.87,1.27,4.65,3.44,5.35,6.5.36,1.58-.16,2.28-1.79,2.34-1.32.04-2.64,0-3.96,0-1.07,0-1.78-.52-2.31-1.43-1.66-2.87-6.14-3.85-8.93-1.98-1.22.82-1.52,2.49-.46,3.54.65.65,1.54,1.19,2.42,1.45,2.56.77,5.17,1.37,7.77,2.04,2.5.64,4.97,1.39,6.71,3.45.63.75,1.22,1.61,1.54,2.53,1.6,4.45-.54,9.93-4.82,11.93-6.12,2.86-12.31,2.8-18.39-.24-2.74-1.37-4.38-3.67-5.05-6.65-.37-1.65.17-2.35,1.86-2.41,1.32-.04,2.64,0,3.96,0,1.02,0,1.84.41,2.18,1.38,1.18,3.4,5.84,4.58,8.84,3.44.89-.34,1.81-.94,2.4-1.68,1.21-1.52.66-3.58-1.19-4.55-1.12-.58-2.37-.95-3.6-1.3-2.5-.71-5.05-1.24-7.52-2.03-4.39-1.41-6.6-4.13-6.58-7.82.02-4.28,2.64-7.76,6.86-9.11.8-.25,1.62-.46,2.45-.58,1.42-.19,2.86-.29,4.29-.43Z"/>
    <path class="cls-1" d="m1134.58,193.53c0-4.48,0-8.96,0-13.43,0-2.17.53-2.68,2.7-2.7,1.08-.01,2.16-.02,3.24.01,1.49.05,1.98.49,2.27,1.94.04.2.06.4.11.59.28,1.13.76,1.28,1.67.52.43-.36.8-.78,1.22-1.15,1.91-1.69,4.18-2.48,6.69-2.57,1.53-.06,2.22.63,2.27,2.15.05,1.36.05,2.72,0,4.08-.04,1.4-.53,1.86-1.9,1.92-.32.01-.64,0-.96.01-4.83.09-7.67,2.55-8.4,7.33-.17,1.14-.22,2.31-.23,3.46-.03,3.8,0,7.6-.02,11.39-.01,1.94-.58,2.48-2.53,2.51-1.16.02-2.32.02-3.48,0-2.11-.03-2.63-.54-2.66-2.62,0-.08,0-.16,0-.24,0-4.4,0-8.8,0-13.19Z"/>
    <path class="cls-1" d="m965.66,193.51c0,4.48.01,8.96,0,13.44,0,2.1-.54,2.62-2.64,2.65-1.12.02-2.24.01-3.36,0-2.15-.03-2.67-.54-2.67-2.73-.01-6.72,0-13.44,0-20.15,0-2.32-.02-4.64.02-6.96.03-1.72.61-2.3,2.33-2.34,1.32-.03,2.64-.03,3.96,0,1.77.04,2.36.62,2.37,2.43.02,4.56,0,9.12,0,13.68Z"/>
    <path class="cls-1" d="m961.26,172.36c-.8,0-1.6.04-2.4,0-1.12-.06-1.79-.69-1.84-1.82-.05-1.2-.05-2.4,0-3.59.06-1.07.71-1.71,1.77-1.74,1.68-.05,3.36-.06,5.03,0,1.13.04,1.74.75,1.79,1.86.04,1.12.06,2.24,0,3.36-.07,1.29-.67,1.84-1.97,1.95-.08,0-.16.01-.24.01-.72,0-1.44,0-2.16,0,0,0,0-.01,0-.02Z"/>
  </g>
  <path class="cls-1" d="m644.82,191.25c-.29,1.77-.31,3.15-1.71,3.26-158.97.02-417.07,0-587.07,0-29.86-.29-43.88.56-60.99-.3-1.1-1.48-1.26-5.8-.68-7.92.34-1.25.64-1.85,1.77-1.78,37.19.13,610.77-.24,647.5.13,1.09.48,1.41,3.88,1.18,6.55v.06Z"/>
  <path class="cls-1" d="m1925.87,191.25c-.29,1.77-.31,3.15-1.71,3.26-158.97.02-417.07,0-587.07,0-29.86-.29-43.88.56-60.99-.3-1.1-1.48-1.26-5.8-.68-7.92.34-1.25.64-1.85,1.77-1.78,37.19.13,610.77-.24,647.5.13,1.09.48,1.41,3.88,1.18,6.55v.06Z"/>
</svg>